<?xml version="1.0" encoding="UTF-8" standalone="no"?>
<!-- Created with Inkscape (http://www.inkscape.org/) -->

<svg
   width="120"
   height="120"
   viewBox="0 0 120 120"
   version="1.1"
   id="svg5"
   xmlns="http://www.w3.org/2000/svg"
   xmlns:svg="http://www.w3.org/2000/svg">
  <defs
     id="defs2">
    <filter
       style="color-interpolation-filters:sRGB"
       id="filter6991"
       x="-0.020718952"
       y="-0.064971218"
       width="1.0414379"
       height="1.1299424">
      <feGaussianBlur
         stdDeviation="0.90278772"
         id="feGaussianBlur6993" />
    </filter>
    <filter
       style="color-interpolation-filters:sRGB"
       id="filter6995"
       x="-0.021899207"
       y="-0.053708583"
       width="1.0437984"
       height="1.1074172">
      <feGaussianBlur
         stdDeviation="0.90278772"
         id="feGaussianBlur6997" />
    </filter>
    <filter
       style="color-interpolation-filters:sRGB"
       id="filter10681"
       x="-0.067837777"
       y="-0.068502009"
       width="1.1356756"
       height="1.137004">
      <feGaussianBlur
         stdDeviation="3.3844749"
         id="feGaussianBlur10683" />
    </filter>
    <filter
       style="color-interpolation-filters:sRGB"
       id="filter875"
       x="-0.093940773"
       y="-0.093940773"
       width="1.1878815"
       height="1.1878815">
      <feGaussianBlur
         stdDeviation="4.3056189"
         id="feGaussianBlur877" />
    </filter>
    <filter
       style="color-interpolation-filters:sRGB"
       id="filter905"
       x="-0.044937866"
       y="-0.064119177"
       width="1.0898757"
       height="1.1282384">
      <feGaussianBlur
         stdDeviation="1.9580795"
         id="feGaussianBlur907" />
    </filter>
  </defs>
  <g
     id="layer2"
     style="display:inline">
    <g
       id="g881"
       style="display:inline">
      <circle
         style="display:inline;fill:#3b60c4;fill-opacity:1;stroke-width:2.17526"
         id="path724"
         cx="60"
         cy="60"
         r="55" />
      <circle
         style="display:inline;fill:#3b60c4;fill-opacity:1;stroke-width:2.17526;filter:url(#filter875)"
         id="circle318"
         cx="60"
         cy="60"
         r="55" />
    </g>
    <g
       id="g903"
       style="display:inline"
       transform="matrix(0.90933,0,0,0.90933,6.0647062,4.9138058)">
      <g
         aria-label="URL"
         id="g889"
         style="font-weight:bold;font-size:58.4661px;font-family:'Bookshelf Symbol 7';-inkscape-font-specification:'Bookshelf Symbol 7 Bold';letter-spacing:-3.93914px;display:inline;fill:#ffffff;stroke-width:4.38496">
        <path
           d="m 24.913107,26.069721 v 26.134346 q 0,4.151093 6.723601,4.151093 6.723602,0 6.723602,-4.151093 V 26.069721 q 0,-1.753983 1.695516,-1.753983 h 7.015932 q 1.637051,0 1.637051,1.753983 v 27.946795 q 0,4.443424 -4.151093,7.542127 -4.151093,3.098703 -12.921008,3.098703 -8.769915,0 -12.921008,-3.098703 -4.151093,-3.098703 -4.151093,-7.542127 V 26.069721 q 0,-1.753983 1.695517,-1.753983 h 7.015932 q 1.637051,0 1.637051,1.753983 z"
           style="font-family:'Geogrotesque Wide';-inkscape-font-specification:'Geogrotesque Wide Bold'"
           id="path883" />
        <path
           d="m 62.251013,62.318702 q 0,1.753983 -1.63705,1.753983 h -7.015932 q -1.695517,0 -1.695517,-1.753983 V 26.069721 q 0,-1.753983 1.695517,-1.753983 h 16.253575 q 7.95139,0 11.634754,2.981771 3.74183,2.981771 3.74183,7.425195 v 4.618821 q 0,6.489737 -6.782067,9.062246 l 6.431271,13.797999 q 0.350796,0.760059 -0.116933,1.34472 -0.467728,0.526195 -1.461652,0.526195 h -7.483661 q -0.818525,0 -1.286254,-0.409262 -0.409263,-0.409263 -0.818525,-1.344721 L 67.980691,49.748491 H 62.251013 Z M 69.50081,32.617924 h -7.249797 v 8.828381 h 7.249797 q 5.437347,0 5.437347,-3.566432 V 36.12589 q 0,-3.507966 -5.437347,-3.507966 z"
           style="font-family:'Geogrotesque Wide';-inkscape-font-specification:'Geogrotesque Wide Bold'"
           id="path885" />
        <path
           d="m 97.77645,26.069721 v 29.759244 h 13.9734 q 1.75398,0 1.75398,1.637051 v 4.911152 q 0,1.695517 -1.75398,1.695517 H 88.889603 q -1.461653,0 -1.461653,-1.753983 V 26.069721 q 0,-1.753983 1.695517,-1.753983 h 7.015932 q 1.637051,0 1.637051,1.753983 z"
           style="font-family:'Geogrotesque Wide';-inkscape-font-specification:'Geogrotesque Wide Bold'"
           id="path887" />
      </g>
      <g
         aria-label="Proxy"
         id="g901"
         style="font-weight:bold;font-size:37.9391px;font-family:'Geogrotesque Wide';-inkscape-font-specification:'Geogrotesque Wide Bold';letter-spacing:0px;display:inline;fill:#ffffff;stroke-width:2.84544">
        <path
           d="m 23.046051,81.445182 h -4.932082 v 7.474003 q 0,1.138173 -1.062295,1.138173 h -4.552692 q -1.100234,0 -1.100234,-1.138173 V 65.396944 q 0,-1.138173 1.100234,-1.138173 h 10.547069 q 5.159718,0 7.549881,1.934894 2.428102,1.934894 2.428102,4.818265 v 3.680093 q 0,2.883371 -2.428102,4.818265 -2.390163,1.934894 -7.549881,1.934894 z M 22.742539,69.646123 h -4.62857 v 6.411707 h 4.62857 q 3.604214,0 3.604214,-2.352224 v -1.707259 q 0,-2.352224 -3.604214,-2.352224 z"
           id="path891" />
        <path
           d="m 48.768733,70.784296 q 1.138173,0 1.138173,1.100234 v 3.300701 q 0,0.569087 -0.265574,0.83466 -0.265574,0.227635 -0.872599,0.303513 -3.680093,0.227635 -6.222012,1.972833 v 10.622948 q 0,1.138173 -1.062295,1.138173 h -4.325057 q -1.100234,0 -1.100234,-1.138173 V 72.188042 q 0,-0.607025 0.227635,-0.83466 0.265573,-0.265573 0.872599,-0.265573 h 4.021544 q 0.569087,0 0.796721,0.265573 0.227635,0.227635 0.303513,0.83466 l 0.113817,1.176113 q 2.997189,-2.579859 6.373769,-2.579859 z"
           id="path893" />
        <path
           d="M 51.917659,84.214737 V 76.93043 q 0,-2.921311 2.54192,-4.552692 2.541919,-1.66932 7.322246,-1.66932 4.780326,0 7.322246,1.66932 2.579858,1.631381 2.579858,4.552692 v 7.284307 q 0,2.92131 -2.579858,4.590631 -2.54192,1.631381 -7.322246,1.631381 -4.780327,0 -7.322246,-1.631381 -2.54192,-1.669321 -2.54192,-4.590631 z m 13.240745,-0.531148 v -6.259951 q 0,-1.821077 -3.376579,-1.821077 -3.37658,0 -3.37658,1.821077 v 6.259951 q 0,1.859016 3.37658,1.859016 3.376579,0 3.376579,-1.859016 z"
           id="path895" />
        <path
           d="m 81.775732,72.150103 2.617798,3.528337 2.579859,-3.528337 q 0.720843,-1.062294 1.707259,-1.062294 h 4.856205 q 0.569086,0 0.682904,0.379391 0.151756,0.341451 -0.189696,0.758782 l -6.335829,8.270723 6.411707,8.42248 q 0.341452,0.41733 0.189696,0.796721 -0.113818,0.341452 -0.682904,0.341452 h -5.577047 q -0.8726,0 -1.70726,-1.062295 l -2.655737,-3.566275 -2.655737,3.566275 q -0.83466,1.062295 -1.66932,1.062295 h -5.0459 q -0.531147,0 -0.682904,-0.341452 -0.151756,-0.379391 0.189696,-0.796721 l 6.563464,-8.498358 -6.184073,-8.194845 q -0.341452,-0.417331 -0.227635,-0.758782 0.151756,-0.379391 0.720843,-0.379391 h 5.349413 q 0.986416,0 1.745198,1.062294 z"
           id="path897" />
        <path
           d="m 106.20852,96.469065 q -0.41733,1.138173 -1.40375,1.138173 h -3.3007 q -0.60702,0 -0.91054,-0.303512 -0.30351,-0.303513 -0.11381,-0.8726 l 2.12459,-5.956438 -7.474005,-18.248706 q -0.227635,-0.531148 0.07588,-0.834661 0.303513,-0.303512 0.948477,-0.303512 h 4.400938 q 0.56908,0 0.83466,0.265573 0.30351,0.265574 0.53114,0.8726 l 2.69368,6.980794 q 0.37939,0.986416 0.94848,3.75597 0.72084,-2.541919 1.13817,-3.566275 l 2.76955,-7.170489 q 0.22764,-0.607026 0.49321,-0.8726 0.30351,-0.265573 0.91054,-0.265573 h 3.94567 q 0.64496,0 0.94847,0.303512 0.34146,0.303513 0.11382,0.834661 z"
           id="path899" />
      </g>
    </g>
    <g
       id="g7022"
       style="display:inline;filter:url(#filter905)"
       transform="matrix(0.90933,0,0,0.90933,6.0647062,4.9138058)">
      <g
         aria-label="URL"
         id="text236"
         style="font-weight:bold;font-size:58.4661px;font-family:'Bookshelf Symbol 7';-inkscape-font-specification:'Bookshelf Symbol 7 Bold';letter-spacing:-3.93914px;display:inline;fill:#ffffff;stroke-width:4.38496">
        <path
           d="m 24.913107,26.069721 v 26.134346 q 0,4.151093 6.723601,4.151093 6.723602,0 6.723602,-4.151093 V 26.069721 q 0,-1.753983 1.695516,-1.753983 h 7.015932 q 1.637051,0 1.637051,1.753983 v 27.946795 q 0,4.443424 -4.151093,7.542127 -4.151093,3.098703 -12.921008,3.098703 -8.769915,0 -12.921008,-3.098703 -4.151093,-3.098703 -4.151093,-7.542127 V 26.069721 q 0,-1.753983 1.695517,-1.753983 h 7.015932 q 1.637051,0 1.637051,1.753983 z"
           style="font-family:'Geogrotesque Wide';-inkscape-font-specification:'Geogrotesque Wide Bold'"
           id="path865" />
        <path
           d="m 62.251013,62.318702 q 0,1.753983 -1.63705,1.753983 h -7.015932 q -1.695517,0 -1.695517,-1.753983 V 26.069721 q 0,-1.753983 1.695517,-1.753983 h 16.253575 q 7.95139,0 11.634754,2.981771 3.74183,2.981771 3.74183,7.425195 v 4.618821 q 0,6.489737 -6.782067,9.062246 l 6.431271,13.797999 q 0.350796,0.760059 -0.116933,1.34472 -0.467728,0.526195 -1.461652,0.526195 h -7.483661 q -0.818525,0 -1.286254,-0.409262 -0.409263,-0.409263 -0.818525,-1.344721 L 67.980691,49.748491 H 62.251013 Z M 69.50081,32.617924 h -7.249797 v 8.828381 h 7.249797 q 5.437347,0 5.437347,-3.566432 V 36.12589 q 0,-3.507966 -5.437347,-3.507966 z"
           style="font-family:'Geogrotesque Wide';-inkscape-font-specification:'Geogrotesque Wide Bold'"
           id="path867" />
        <path
           d="m 97.77645,26.069721 v 29.759244 h 13.9734 q 1.75398,0 1.75398,1.637051 v 4.911152 q 0,1.695517 -1.75398,1.695517 H 88.889603 q -1.461653,0 -1.461653,-1.753983 V 26.069721 q 0,-1.753983 1.695517,-1.753983 h 7.015932 q 1.637051,0 1.637051,1.753983 z"
           style="font-family:'Geogrotesque Wide';-inkscape-font-specification:'Geogrotesque Wide Bold'"
           id="path869" />
      </g>
      <g
         aria-label="Proxy"
         id="text240"
         style="font-weight:bold;font-size:37.9391px;font-family:'Geogrotesque Wide';-inkscape-font-specification:'Geogrotesque Wide Bold';letter-spacing:0px;display:inline;fill:#ffffff;stroke-width:2.84544">
        <path
           d="m 23.046051,81.445182 h -4.932082 v 7.474003 q 0,1.138173 -1.062295,1.138173 h -4.552692 q -1.100234,0 -1.100234,-1.138173 V 65.396944 q 0,-1.138173 1.100234,-1.138173 h 10.547069 q 5.159718,0 7.549881,1.934894 2.428102,1.934894 2.428102,4.818265 v 3.680093 q 0,2.883371 -2.428102,4.818265 -2.390163,1.934894 -7.549881,1.934894 z M 22.742539,69.646123 h -4.62857 v 6.411707 h 4.62857 q 3.604214,0 3.604214,-2.352224 v -1.707259 q 0,-2.352224 -3.604214,-2.352224 z"
           id="path872" />
        <path
           d="m 48.768733,70.784296 q 1.138173,0 1.138173,1.100234 v 3.300701 q 0,0.569087 -0.265574,0.83466 -0.265574,0.227635 -0.872599,0.303513 -3.680093,0.227635 -6.222012,1.972833 v 10.622948 q 0,1.138173 -1.062295,1.138173 h -4.325057 q -1.100234,0 -1.100234,-1.138173 V 72.188042 q 0,-0.607025 0.227635,-0.83466 0.265573,-0.265573 0.872599,-0.265573 h 4.021544 q 0.569087,0 0.796721,0.265573 0.227635,0.227635 0.303513,0.83466 l 0.113817,1.176113 q 2.997189,-2.579859 6.373769,-2.579859 z"
           id="path874" />
        <path
           d="M 51.917659,84.214737 V 76.93043 q 0,-2.921311 2.54192,-4.552692 2.541919,-1.66932 7.322246,-1.66932 4.780326,0 7.322246,1.66932 2.579858,1.631381 2.579858,4.552692 v 7.284307 q 0,2.92131 -2.579858,4.590631 -2.54192,1.631381 -7.322246,1.631381 -4.780327,0 -7.322246,-1.631381 -2.54192,-1.669321 -2.54192,-4.590631 z m 13.240745,-0.531148 v -6.259951 q 0,-1.821077 -3.376579,-1.821077 -3.37658,0 -3.37658,1.821077 v 6.259951 q 0,1.859016 3.37658,1.859016 3.376579,0 3.376579,-1.859016 z"
           id="path876" />
        <path
           d="m 81.775732,72.150103 2.617798,3.528337 2.579859,-3.528337 q 0.720843,-1.062294 1.707259,-1.062294 h 4.856205 q 0.569086,0 0.682904,0.379391 0.151756,0.341451 -0.189696,0.758782 l -6.335829,8.270723 6.411707,8.42248 q 0.341452,0.41733 0.189696,0.796721 -0.113818,0.341452 -0.682904,0.341452 h -5.577047 q -0.8726,0 -1.70726,-1.062295 l -2.655737,-3.566275 -2.655737,3.566275 q -0.83466,1.062295 -1.66932,1.062295 h -5.0459 q -0.531147,0 -0.682904,-0.341452 -0.151756,-0.379391 0.189696,-0.796721 l 6.563464,-8.498358 -6.184073,-8.194845 q -0.341452,-0.417331 -0.227635,-0.758782 0.151756,-0.379391 0.720843,-0.379391 h 5.349413 q 0.986416,0 1.745198,1.062294 z"
           id="path878" />
        <path
           d="m 106.20852,96.469065 q -0.41733,1.138173 -1.40375,1.138173 h -3.3007 q -0.60702,0 -0.91054,-0.303512 -0.30351,-0.303513 -0.11381,-0.8726 l 2.12459,-5.956438 -7.474005,-18.248706 q -0.227635,-0.531148 0.07588,-0.834661 0.303513,-0.303512 0.948477,-0.303512 h 4.400938 q 0.56908,0 0.83466,0.265573 0.30351,0.265574 0.53114,0.8726 l 2.69368,6.980794 q 0.37939,0.986416 0.94848,3.75597 0.72084,-2.541919 1.13817,-3.566275 l 2.76955,-7.170489 q 0.22764,-0.607026 0.49321,-0.8726 0.30351,-0.265573 0.91054,-0.265573 h 3.94567 q 0.64496,0 0.94847,0.303512 0.34146,0.303513 0.11382,0.834661 z"
           id="path880" />
      </g>
    </g>
  </g>
  <g
     id="layer1"
     style="display:none" />
</svg>
